<svg width="1200" height="900" viewBox="0 0 1200 900" xmlns="http://www.w3.org/2000/svg" role="img" aria-label="1905 Partition of Bengal and Swadeshi">
  <defs>
    <linearGradient id="bg" x1="0" y1="0" x2="1" y2="1">
      <stop offset="0%" stop-color="#8a6c3f"/>
      <stop offset="100%" stop-color="#352515"/>
    </linearGradient>
    <radialGradient id="glow" cx="40%" cy="40%" r="50%">
      <stop offset="0%" stop-color="#d6b781" stop-opacity="0.8"/>
      <stop offset="100%" stop-color="#d6b781" stop-opacity="0"/>
    </radialGradient>
  </defs>
  <rect width="1200" height="900" fill="url(#bg)"/>
  <rect width="1200" height="900" fill="url(#glow)"/>
  <path d="M80 130 H1120 V740 H80 Z" fill="none" stroke="#e8dbbf" stroke-width="10" opacity="0.6"/>
  <path d="M600 170 L600 710" stroke="#e8dbbf" stroke-width="9" opacity="0.9"/>
  <g fill="#eddfc2" opacity="0.92">
    <circle cx="330" cy="470" r="42"/>
    <rect x="292" y="510" width="76" height="115" rx="22"/>
    <circle cx="500" cy="480" r="40"/>
    <rect x="464" y="518" width="72" height="110" rx="22"/>
    <circle cx="760" cy="470" r="42"/>
    <rect x="722" y="510" width="76" height="115" rx="22"/>
    <circle cx="930" cy="482" r="39"/>
    <rect x="895" y="518" width="70" height="108" rx="22"/>
  </g>
  <g stroke="#2b1f13" stroke-width="8" stroke-linecap="round" opacity="0.85">
    <line x1="330" y1="560" x2="330" y2="365"/>
    <line x1="500" y1="560" x2="500" y2="380"/>
    <line x1="760" y1="560" x2="760" y2="372"/>
    <line x1="930" y1="560" x2="930" y2="382"/>
  </g>
</svg>
